<svg xmlns="http://www.w3.org/2000/svg" data-name="Layer 1" viewBox="-9 -10 120 120" width="300px" style="background: #333" x="0px" y="0px"><path fill="#fff" d="M75,33.75s0-.09,0-.14a1.46,1.46,0,0,0,0-.15,1.5,1.5,0,0,0-.14-.26h0l0,0a1.51,1.51,0,0,0-.16-.19l-.1-.08-.13-.1-.11-.06-.15-.07-.12,0-.15,0-.2,0H28.38l-.21,0-.15,0-.13,0-.14.07-.12.06-.12.1-.1.08a1.5,1.5,0,0,0-.15.18l0,0h0a1.5,1.5,0,0,0-.14.26,1.47,1.47,0,0,0,0,.15s0,.08,0,.13a1.5,1.5,0,0,0,0,.3h0V64.8h0a1.5,1.5,0,0,0,0,.3s0,.08,0,.13a1.46,1.46,0,0,0,0,.15,1.5,1.5,0,0,0,.14.26h0a1.5,1.5,0,0,0,.21.24l.09.07.19.13.1.05.23.08.09,0a1.5,1.5,0,0,0,.33,0H73.54a1.49,1.49,0,0,0,.33,0l.08,0,.23-.09.1-.05.19-.13.09-.07a1.5,1.5,0,0,0,.21-.24h0a1.49,1.49,0,0,0,.14-.26,1.44,1.44,0,0,0,0-.15s0-.09,0-.14a1.49,1.49,0,0,0,0-.3h0V34.05h0A1.49,1.49,0,0,0,75,33.75Zm-6.33,1.8L51,47.61,33.32,35.55ZM30,36.89,48.34,49.42,30,62ZM33.32,63.3,51,51.24,68.68,63.3ZM72,62,53.66,49.42,72,36.89Z"/><path fill="#fff" d="M16.87,58a1.5,1.5,0,0,0,1.06-2.56l-6-6,6-6a1.5,1.5,0,0,0-2.12-2.12L8.73,48.36a1.5,1.5,0,0,0,0,2.12l7.08,7.08A1.5,1.5,0,0,0,16.87,58Z"/><path fill="#fff" d="M86.19,41.28a1.5,1.5,0,0,0-2.12,2.12l6,6-6,6a1.5,1.5,0,1,0,2.12,2.12l7.08-7.08a1.5,1.5,0,0,0,0-2.12Z"/></svg>