<?xml version="1.0" encoding="UTF-8"?>
<svg viewBox="-4.5 -4.5 32 32" width="300px" height="300px" style="background: #333" version="1.1" xmlns="http://www.w3.org/2000/svg" xmlns:xlink="http://www.w3.org/1999/xlink">
    <!-- Generator: Sketch 47.1 (45422) - http://www.bohemiancoding.com/sketch -->
    <title>Shape</title>
    <desc>Created with Sketch.</desc>
    <defs></defs>
    <g id="Page-1" stroke="none" stroke-width="1" fill="none" fill-rule="evenodd">
        <g id="noun_1186012_cc" fill="#fff">
            <path d="M21.9954482,11.0852465 C21.8220658,5.6103139 17.4871879,1.18600252 12.0492127,0.87056428 L12.0492127,5.0601655 C15.1782742,5.36209304 17.6478595,7.91841418 17.8141056,11.0852465 L21.9954069,11.0852465 L21.9954482,11.0852465 Z M17.8142295,11.7674296 C17.6367178,15.141029 14.8452037,17.82187 11.4274207,17.82187 C10.3116762,17.82187 9.26284711,17.5359068 8.34971556,17.033675 L5.3227679,20.0606226 C7.04722693,21.2820198 9.15343683,22 11.4274207,22 C17.1530026,22 21.8150798,17.4492078 21.9954069,11.7674379 L17.8142295,11.7674379 L17.8142295,11.7674296 Z M7.75551151,16.6630608 C6.10825826,15.5060562 5.03148202,13.5918263 5.03148202,11.4259354 C5.03148202,7.91480103 7.860809,5.06497615 11.3638665,5.03082673 L11.3638665,0.852705 C5.55326204,0.88695881 0.853319,5.60732015 0.853319,11.4259767 C0.853319,14.7446273 2.38258125,17.7056711 4.77434555,19.6443011 L7.75549912,16.663131 L7.75551151,16.6630608 Z" id="Shape"></path>
        </g>
    </g>
</svg>